PathFileType	4	(X/Y/Z)	/Users/niels/Desktop/University/Third Semester/Perception and Action/Exam/Gymnastics Motion Tracking/Code for Gym Tracking/Analyzed Data/Webcam_Backflip/id2_3_pure_Sports2D/id2_3_pure_Sports2D_px_person00.trc
DataRate	CameraRate	NumFrames	NumMarkers	Units	OrigDataRate	OrigDataStartFrame	OrigNumFrames
29.874476987447697	29.874476987447697	12	22	m	29.874476987447697	149	239
Frame#	Time	Hip			RHip			RKnee			RAnkle			RBigToe			RSmallToe			RHeel			LHip			LKnee			LAnkle			LBigToe			LSmallToe			LHeel			Neck			Head			Nose			RShoulder			RElbow			RWrist			LShoulder			LElbow			LWrist		
		X1	Y1	Z1	X2	Y2	Z2	X3	Y3	Z3	X4	Y4	Z4	X5	Y5	Z5	X6	Y6	Z6	X7	Y7	Z7	X8	Y8	Z8	X9	Y9	Z9	X10	Y10	Z10	X11	Y11	Z11	X12	Y12	Z12	X13	Y13	Z13	X14	Y14	Z14	X15	Y15	Z15	X16	Y16	Z16	X17	Y17	Z17	X18	Y18	Z18	X19	Y19	Z19	X20	Y20	Z20	X21	Y21	Z21	X22	Y22	Z22
149	4.987535014005602	0.7871908401627733	-0.5350195642915737	0.0	0.7836088482985998	-0.534243289165733	0.0	0.8119653131354224	-0.6531460030163525	0.0	0.7555352444446889	-0.7690073450339229	0.0	0.7917817497339797	-0.7965112051113	0.0	0.7808043520164936	-0.7978620581577134	0.0	0.7392232825394268	-0.7852418523990653	0.0	0.7941437346380583	-0.5330576554534772	0.0	0.8119063783269412	-0.6509900080994293	0.0	0.7752673981497914	-0.7575559731738059	0.0	0.8087845571349962	-0.7880073993727174	0.0	0.8056220941941054	-0.7819441832803931	0.0	0.7619764392481606	-0.7730961071893762	0.0	0.7901973403617311	-0.38570041673021577	0.0	0.8197079207393605	-0.308178707478515	0.0	0.8300907384959759	-0.3564086143628815	0.0	0.7793480196327796	-0.39708124449172183	0.0	0.7860613618566743	-0.45678385514793934	0.0	0.8550614137076211	-0.4582237924654724	0.0	0.7888922842584359	-0.399253694757401	0.0	0.7979379172715285	-0.4558967548595529	0.0	0.8506381113616086	-0.46615974767243823	0.0
150	5.0210084033613445	0.7886617735447529	-0.5342092985320623	0.0	0.7855093134115352	-0.534099230938544	0.0	0.806247732574163	-0.6521676000234952	0.0	0.7552771296060085	-0.770484465104854	0.0	0.7914463119767473	-0.7977584413254029	0.0	0.7803870812086517	-0.7994306881055826	0.0	0.739549593577141	-0.7871843751707984	0.0	0.7943453702349553	-0.532952083362479	0.0	0.8060743524600638	-0.6506587086460682	0.0	0.7739456575615806	-0.759282980657233	0.0	0.8069105432820186	-0.7892612909226971	0.0	0.8042810943862433	-0.783315611419926	0.0	0.7608627696042668	-0.7752314774512383	0.0	0.791509015528433	-0.3826490202449233	0.0	0.8194760728556743	-0.3049441673402651	0.0	0.8308805474016147	-0.35231519904435543	0.0	0.7805120084079225	-0.39733476552581337	0.0	0.7839611632172946	-0.46828215379228144	0.0	0.8521395547825464	-0.48591676774167003	0.0	0.7889046247455235	-0.3980940217169985	0.0	0.7930526603023262	-0.46477848149828677	0.0	0.8447985838868018	-0.4879280397626437	0.0
151	5.054481792717087	0.7899455898579842	-0.536274106312494	0.0	0.7872192015368507	-0.5366111352621987	0.0	0.8003902063439494	-0.6533007148496383	0.0	0.7547225271795818	-0.7733199601097439	0.0	0.790823293580328	-0.8002240575465343	0.0	0.7795031228087553	-0.8022258993587991	0.0	0.7396776113511215	-0.7902783630686183	0.0	0.7946501865407765	-0.535530121486542	0.0	0.8012920673771832	-0.6521724364220526	0.0	0.7725893898990486	-0.7624503024259273	0.0	0.8051992627298864	-0.7916022257823307	0.0	0.8032148861391624	-0.7859328385235087	0.0	0.7598838366435507	-0.7786383941885806	0.0	0.792835385357086	-0.3814277990359962	0.0	0.8189383421551774	-0.3043741936687971	0.0	0.8314333593008724	-0.35008519951579814	0.0	0.781586108206053	-0.399326856146891	0.0	0.7824036789766169	-0.4772221589054286	0.0	0.8450256844596412	-0.5110888994825914	0.0	0.7897849620414563	-0.39901751938015306	0.0	0.7914670399701905	-0.47182598710616364	0.0	0.8389629439715811	-0.5078069716789719	0.0
152	5.087955182072829	0.7912111541807492	-0.5406510948299332	0.0	0.7887735509888233	-0.5411959721537144	0.0	0.7949499501156857	-0.6561909099327817	0.0	0.7540541274535091	-0.776944553498639	0.0	0.7897496804677139	-0.8034928535699891	0.0	0.7779346275705356	-0.805756148730648	0.0	0.7398532197665929	-0.7941285866965122	0.0	0.7954770293355865	-0.5402324445563005	0.0	0.7976876320758525	-0.6553078133728089	0.0	0.7714727346769026	-0.76644572995556	0.0	0.8040001191737094	-0.79468985787706	0.0	0.802669746651638	-0.7894113968046818	0.0	0.759535079723861	-0.7828360513569085	0.0	0.79411812101836	-0.38201426779449393	0.0	0.8184345389000605	-0.3060270807212952	0.0	0.8319962717539781	-0.3497498256379526	0.0	0.7825218007756447	-0.40265543829330686	0.0	0.7811118772393122	-0.4841897430413261	0.0	0.8341185662532941	-0.5327476544302603	0.0	0.7913529046796107	-0.40174291436121273	0.0	0.7923961231943241	-0.4777749017205935	0.0	0.8332330556473052	-0.5250631466290545	0.0
153	5.121428571428571	0.7926457822164292	-0.5465304164070286	0.0	0.7902320643183496	-0.547090347198209	0.0	0.7903327318456296	-0.6603631131711747	0.0	0.7533932315679321	-0.7809318170184332	0.0	0.7881388340334569	-0.8071706186430233	0.0	0.7756916026980294	-0.809602629489943	0.0	0.7401904207640058	-0.7983825617945368	0.0	0.7971848252461267	-0.5463166215882638	0.0	0.7952665375220531	-0.6597216999270737	0.0	0.770808813646251	-0.7708440457169645	0.0	0.8034930922310716	-0.7982531693733157	0.0	0.8026899173791779	-0.7934420002418077	0.0	0.760062820738252	-0.787479106946987	0.0	0.7952925184293564	-0.3842643816901824	0.0	0.8182042359779151	-0.3093030268287504	0.0	0.8326844466084632	-0.35112414860965785	0.0	0.7832581225599299	-0.406988844627919	0.0	0.7795505586964824	-0.4899129070893343	0.0	0.8205766351653212	-0.5502889937499355	0.0	0.7933209748290766	-0.4058485323942249	0.0	0.7941916747602902	-0.48321886663986185	0.0	0.8271499642076562	-0.5393641808297011	0.0
154	5.154901960784313	0.7943335822456445	-0.5529584670047382	0.0	0.791624753583221	-0.5533779690772985	0.0	0.7867785367421506	-0.6652333991403082	0.0	0.7528148686543752	-0.7850320566887586	0.0	0.7861710072756837	-0.8110418165274552	0.0	0.7731912281541641	-0.8135478187746041	0.0	0.7405971673851766	-0.8027479423791094	0.0	0.7997651734846785	-0.552863366737796	0.0	0.7939202637267541	-0.6649435123887724	0.0	0.7706381220763926	-0.7754753985867245	0.0	0.803653453703029	-0.8021275565299266	0.0	0.8031044467077518	-0.7978055444933312	0.0	0.7612373775505016	-0.7923961550276585	0.0	0.7963028654245192	-0.38785473547660204	0.0	0.8183071456585829	-0.3136063963901394	0.0	0.8334662641089643	-0.3538558538428631	0.0	0.7836938430010396	-0.41198226948535527	0.0	0.7770906416153641	-0.49488966387625133	0.0	0.8059654557801805	-0.5635892069053583	0.0	0.7954216624110454	-0.41082229147716615	0.0	0.7951390981330059	-0.4884024021401057	0.0	0.8201542088671083	-0.5507749685780552	0.0
155	5.188375350140056	0.796154372295346	-0.5590654661120394	0.0	0.792865412430342	-0.5591765488255004	0.0	0.7843664225053052	-0.6702342776352241	0.0	0.7523937912944917	-0.7890997698391748	0.0	0.7842760064203799	-0.815005917150543	0.0	0.7710836217296703	-0.8174846913804427	0.0	0.7408812523700675	-0.8070252394053974	0.0	0.802727370885539	-0.5589624408598435	0.0	0.7934333676719728	-0.6704298183549526	0.0	0.7708382006629184	-0.7802386412219185	0.0	0.8043268132143794	-0.8061878025107458	0.0	0.8036619001237923	-0.8022893448938094	0.0	0.7625216594864435	-0.7974380351719169	0.0	0.7970992037317267	-0.3923505465102423	0.0	0.8186135674679808	-0.318435077670812	0.0	0.8342010047837123	-0.35752634645548953	0.0	0.7837787213299825	-0.41724711443628487	0.0	0.7734088858578692	-0.4992950836263057	0.0	0.7919169143138156	-0.573030434179623	0.0	0.7974205787446915	-0.416135774162173	0.0	0.7942450903687248	-0.49322372674231113	0.0	0.8120367351304988	-0.5596023967067407	0.0
156	5.221848739495798	0.7978231538197467	-0.5643115063978483	0.0	0.7937821137762934	-0.5639454233265431	0.0	0.7830284361500399	-0.6749603663870709	0.0	0.7521610232017641	-0.793029090296471	0.0	0.782865443160087	-0.8189193711893535	0.0	0.7698486396212142	-0.8212694788970415	0.0	0.7408994920730679	-0.8110838249319625	0.0	0.805411068847383	-0.5640087273935636	0.0	0.7935339537206915	-0.6756800111126354	0.0	0.7712338152220186	-0.7849290221733703	0.0	0.8052905396092891	-0.8102477860388895	0.0	0.804175502660255	-0.806615411168918	0.0	0.7634497663458348	-0.8023409024208018	0.0	0.7976406819049997	-0.39726119720726255	0.0	0.8188645511478565	-0.32340043685450276	0.0	0.8347126614627632	-0.3617083374899163	0.0	0.783597721749584	-0.4223809281714191	0.0	0.7687829167654835	-0.5031131481495851	0.0	0.7797889691451393	-0.5793912363108977	0.0	0.7990803965240194	-0.42130399269305957	0.0	0.7915645707994212	-0.497442303216877	0.0	0.8032587516782429	-0.5662281464093606	0.0
157	5.255322128851541	0.799091292012961	-0.5685437676340765	0.0	0.7943035503029505	-0.5676151325868785	0.0	0.782579910461932	-0.6791709724862824	0.0	0.7520654138141294	-0.7967190411811832	0.0	0.7821415225132418	-0.8225621247314975	0.0	0.7696055949624644	-0.8247312631445954	0.0	0.7406567457688311	-0.8147940603984368	0.0	0.8074088270964703	-0.5678543410697942	0.0	0.7939415542691373	-0.6803198323153051	0.0	0.7716608185383759	-0.7892737856306087	0.0	0.806276650510904	-0.8140375088977829	0.0	0.8045256765406559	-0.8104682017133681	0.0	0.763808509206759	-0.8067896075339673	0.0	0.7979073983163806	-0.4020685349234576	0.0	0.8187976812102532	-0.3281730836741895	0.0	0.8348849223042798	-0.36595594805222303	0.0	0.7833240147994309	-0.4270191871011348	0.0	0.7639653119444465	-0.506292312256294	0.0	0.7703910334177791	-0.5835882245484247	0.0	0.8002056849859299	-0.4259351735639017	0.0	0.787921270005176	-0.5009333527025767	0.0	0.7948584496271585	-0.5710359883283608	0.0
158	5.288795518207283	0.7999172293613305	-0.5718104163959327	0.0	0.7945662821119903	-0.5703594861919489	0.0	0.7827788477820791	-0.682678394265139	0.0	0.752032509671872	-0.8000028156914678	0.0	0.7821062593708229	-0.825666361216384	0.0	0.7701967470009766	-0.8276833428924255	0.0	0.7403102709731696	-0.8179688627582415	0.0	0.8086765671578849	-0.570644858671014	0.0	0.7944022758496423	-0.6840830793773495	0.0	0.7719855290872646	-0.7930032451136213	0.0	0.8070350276315282	-0.8172589604838322	0.0	0.8046348810206158	-0.8135691963411582	0.0	0.7636168318576966	-0.8104904758885904	0.0	0.7979015383438263	-0.40630448318671397	0.0	0.8182826537253238	-0.33242439151490316	0.0	0.8347027513789266	-0.36981579355340416	0.0	0.7830974922671144	-0.43087751028080906	0.0	0.7597832189215459	-0.5088107633175546	0.0	0.7639553273342863	-0.5863816295177045	0.0	0.8007021688499406	-0.4297569857319205	0.0	0.7842979869140925	-0.5037189386435411	0.0	0.7879201956352698	-0.5743875322651409	0.0
159	5.322268907563025	0.8004518892345198	-0.5741194783024719	0.0	0.7948074702142732	-0.5722454198231612	0.0	0.7833910813495994	-0.6852774482154939	0.0	0.7520415160875952	-0.8025760882531073	0.0	0.7825981073556363	-0.82792208902025	0.0	0.7712609062237847	-0.8298285395116451	0.0	0.7400376436691134	-0.8203273633933381	0.0	0.8093775819097446	-0.5724935927721444	0.0	0.7947447776530417	-0.6867530796213682	0.0	0.7721517227903311	-0.7958477106857798	0.0	0.8074487826895885	-0.8196733201673887	0.0	0.8045361006102661	-0.815739611305572	0.0	0.7630888429058643	-0.813143470810629	0.0	0.7976433629112866	-0.4096189786079405	0.0	0.8173559819772392	-0.3358540247311384	0.0	0.8342271364543191	-0.3729001335719118	0.0	0.7829443144360294	-0.43375993161617876	0.0	0.7568081447715471	-0.510652533161126	0.0	0.7603143745688498	-0.5882101264746376	0.0	0.8005840422218382	-0.4325866604112281	0.0	0.78143491394268	-0.5058112122774197	0.0	0.783176460869251	-0.5765839423002979	0.0
160	5.355742296918767	0.8009021996694143	-0.5753959146992654	0.0	0.7951893373312979	-0.5731639548301062	0.0	0.7842143630253783	-0.6867945636342294	0.0	0.7521230482071437	-0.8040846777587853	0.0	0.7833254154549496	-0.8290762704651911	0.0	0.7722953000639433	-0.8308463489230775	0.0	0.7399209446558804	-0.821578044812254	0.0	0.8097197287790888	-0.5733652011158124	0.0	0.7949247040693863	-0.6881795070439254	0.0	0.772191127972023	-0.7975683911532344	0.0	0.80756680481303	-0.8211298849754517	0.0	0.8043775244704465	-0.8169091994838547	0.0	0.762531489518935	-0.8145158019822542	0.0	0.7971684914940171	-0.4117859747929128	0.0	0.8161507495612157	-0.3382304866908388	0.0	0.8335530991768721	-0.37495397155697496	0.0	0.7827874616638298	-0.4355501392404761	0.0	0.7552219882565415	-0.5117719251364726	0.0	0.7591175986035091	-0.5892076389664422	0.0	0.7999724617665172	-0.4343021052598892	0.0	0.7797904709504586	-0.5071318488305366	0.0	0.7811036486615587	-0.5778037875521665	0.0
